<svg fill="none" height="51" viewBox="0 0 50 51" width="50" xmlns="http://www.w3.org/2000/svg"><g fill="#37474f"><path d="m44.5626 38.284-.8422.8423 1.8376 1.761-1.8376 1.8377.8422.8422 2.6799-2.6799z"/><path d="m37.1355 38.284-2.6033 2.6033 2.6033 2.6799.8423-.8422-1.8376-1.8377 1.8376-1.761z"/><path d="m38.1652 45.0749 1.0293.5095 4.3476-8.7835-1.0293-.5094z"/><path d="m40.8874 31.6992c-.6892 0-1.3017.0766-1.9908.2297-1.4548-1.4548-3.2159-2.4502-5.2066-3.0627.3828-1.7611.2297-3.1393-.6892-4.1347-1.1485-1.3017-3.0627-1.5314-4.3643-1.4548 1.4548-1.6079 2.5267-3.6753 2.6033-6.0489.6891-.6125 2.6033-2.297 2.5267-4.1347-.0765-1.8376-1.3016-1.9142-1.6079-1.9142h-.0766l.3063-2.75641c.1531-3.29243-1.3017-4.51752-2.3736-4.97693 1.0719-1.53136.7657-2.526743.7657-2.603311l-.2297-.689113-.6126.459409c-.6891.459405-1.3782.689115-2.0673.689115-.4594 0-.7657-.15314-.7657-.15314-2.0673-.918816-6.4317-1.14852-6.6614-1.14852-4.5175 0-5.8958 2.29704-6.202 3.21586-3.8284.45941-3.6753 4.28781-3.5987 6.12544v.8423c0 .3828 0 .7656.0765 1.1485-.5359 0-1.53133.3062-1.53133 1.9142-.07657 1.8376 1.83763 3.5987 2.52673 4.1347.0766 2.2204 1.072 4.2112 2.4502 5.8191-1.3017 0-3.369.1532-4.51752 1.4548-.84225.9954-1.07196 2.3736-.61255 4.2113-5.35976 1.761-9.03503 6.8911-9.03503 12.5571v2.4502h32.1586c1.2251 3.5987 4.6706 6.202 8.6522 6.202 5.0535 0 9.1881-4.1347 9.1881-9.1881.0766-5.0535-4.0581-9.1882-9.1115-9.1882zm-8.7288-6.202c.6891.7656.7657 1.9907.2297 3.6752-.0766.1532-1.6079 3.4456-6.202 4.6707-.3063-.8423-.9188-1.5314-1.7611-1.9142.6891-.3829 1.2251-.8423 1.6845-1.3782 1.7611-2.0674 1.8376-4.9004 1.8376-6.0489 1.072-.1532 3.2159-.1532 4.2113.9954zm-6.2786 11.7149c.536 0 .9188.4594.9188.9188 0 .536-.4594.9188-.9188.9188-.536 0-.9954-.4594-.9954-.9188.0766-.4594.4594-.9188.9954-.9188zm-4.7472-5.6661c-1.6079-.1531-2.9096-.7656-3.7518-1.761-1.3017-1.5314-1.5314-3.7519-1.608-4.9004 1.7611 1.3782 3.7519 2.2205 5.6661 2.2205 1.6079 0 3.6752-.7657 5.4363-2.1439 0 1.2251-.3063 3.369-1.6079 4.9003-.8423.9189-2.1439 1.5314-3.7519 1.6845zm-6.4317-27.25819h.4594l.0765-.45941s.536-2.75645 5.2067-2.75645c.0765 0 4.2878.22971 6.202 1.07196.0766 0 .536.2297 1.2251.2297.536 0 1.0719-.07657 1.5313-.30627-.1531.30627-.4594.68911-.8422 1.14852l-.8423.91882 1.2251.07656c.0766 0 2.5268.22971 2.2971 4.05811l-.3063 2.75645-1.3017.536c-.3062-.3829-.7656-.536-.9953-.6126-.6126-.0765-1.2251-.0765-1.9908-.0765-1.3017 0-2.5268.1531-2.6033.1531-.9954.1531-1.6845.4594-1.9908 1.072 0 .0765 0 .0765-.0766.1531h-.9953c0-.0766 0-.0766-.0766-.1531-.3063-.6126-.9954-.9954-1.9908-1.072-.0766 0-1.3016-.1531-2.6033-.1531-.7657 0-1.4548.0765-1.9142.1531-.2297.0766-.6891.2297-.9954.6125l-1.5313-.6125c0-.3063-.0766-.536-.0766-.7657s0-.53596 0-.9188c-.1532-2.60331 0-4.90035 2.9096-5.05349zm14.1651 9.11159-.0766.536c-.2297 1.3782-.3063 1.6079-.9954 1.7611 0 0-.7657.1531-1.6845.1531-.9954 0-1.6845-.2297-2.0673-.536-.1532-.2297-.6126-1.0719-.9954-2.0673 0 0-.1531-.3829 0-.6126s.536-.3828 1.0719-.4594c0 0 1.2251-.1531 2.5268-.1531.6891 0 1.3016.0766 1.6845.1531.0766-.0765.7657.0766.536 1.2251zm-9.0351-.0766c-.3828.9954-.8422 1.8377-.9954 1.9908-.3828.3829-1.0719.536-2.0673.536-.8422 0-1.6079-.1531-1.6079-.1531-.6891-.2297-.7657-.4595-.9954-1.8377l-.0766-.536c-.1531-1.0719.3829-1.225.536-1.3016.3828-.0766.9954-.1531 1.6845-.1531 1.2251 0 2.4502.1531 2.4502.1531.6125.0766.9954.2297 1.0719.4594.2297.3828.0766.7657 0 .8422zm-6.9677 3.5222-.2297-.1532c-.6891-.5359-2.3736-2.0673-2.297-3.369 0-.8422.3063-.8422.536-.8422.3062 0 .6125-.1531.7656-.3063l1.3017.536c-.0766.3063-.0766.6125 0 .9954l.0766.536c.2297 1.3782.3828 2.297 1.8376 2.7564 0 0 .9188.1531 1.9142.1531 1.3782 0 2.3736-.3062 2.9862-.9953l.0765-.0766c0-.0766.6891-1.072 1.1486-2.2205 0 0 .0765-.2297.1531-.4594h.8422c.0766.2297.1532.3829.1532.3829.4594 1.225 1.1485 2.2204 1.1485 2.297l.0766.0766c.6125.6125 1.6079.9953 2.9861.9953.9954 0 1.8377-.1531 1.9142-.2297 1.4548-.4594 1.6079-1.3016 1.8377-2.6798l.0765-.536c.0766-.3829.0766-.6891 0-.9954l1.2251-.4594c.1531.0766.3063.1531.4594.1531h.2297.2297c.1532 0 .4594 0 .4594.8423 0 1.3016-1.6845 2.9096-2.297 3.369l-.2297.1531v.3063c0 2.5267-1.3782 4.9003-3.2159 6.5083-1.6845 1.4548-3.7518 2.3736-5.3597 2.3736-3.8284 0-8.4991-3.905-8.5757-8.7288zm-2.297 8.6522c.9954-1.1486 3.1393-1.1486 4.1347-1.072 0 1.2251.0765 4.0581 1.8376 6.0489.536.6891 1.2251 1.1485 2.0673 1.5314-.6891.4594-1.225 1.1485-1.5313 1.9142-5.0535-1.1486-6.738-4.6707-6.738-4.7473-.53599-1.6845-.45942-2.9096.2297-3.6752zm6.8911 13.0931c.536 0 .9954.4594.9954.9188 0 .536-.4594.9188-.9954.9188s-.9954-.4594-.9954-.9188c.0766-.5359.4594-.9188.9954-.9188zm-16.30898 4.2113v-1.3017c0-5.2066 3.369-9.8007 8.26935-11.4852.61253 1.0719 2.67993 4.0581 7.42713 5.13v2.3737c-.9188.2297-1.5314 1.0719-1.5314 1.9907 0 1.1485.9188 2.0674 2.1439 2.0674s2.1439-.9189 2.1439-2.0674c0-.9954-.6125-1.761-1.5313-1.9907v-2.5268c0-1.3016.9954-2.297 2.297-2.297h.7657.2297.0766.2297 1.4548c1.3016 0 2.297.9954 2.297 2.297v1.1485c-.9188.2297-1.5314 1.072-1.5314 1.9908 0 1.1485.9189 2.0673 2.0674 2.0673s2.0673-.9188 2.0673-2.0673c0-.9954-.6125-1.7611-1.5313-1.9908v-1.1485c4.3643-1.1485 6.2785-3.9815 6.8145-5.0535 1.6079.4594 3.0627 1.3017 4.2878 2.3736-3.4455 1.3017-5.9723 4.6707-5.9723 8.5757 0 .6125.0766 1.3016.2297 1.8376h-30.70378zm39.73888 6.1254c-4.441 0-8.0397-3.5987-8.0397-8.0396 0-4.441 3.5987-8.0397 8.0397-8.0397 4.4409 0 8.0396 3.5987 8.0396 8.0397 0 4.4409-3.5987 8.0396-8.0396 8.0396z"/></g></svg>